<svg xmlns="http://www.w3.org/2000/svg" xmlns:xlink="http://www.w3.org/1999/xlink" width="689" height="714" viewBox="0 0 689 714">
  <defs>
    <style>
      .cls-1 {
        opacity: 0.5;
      }

      .cls-2 {
        fill: #fff;
      }

      .cls-3 {
        fill: #e8e8e8;
      }

      .cls-4 {
        filter: url(#Rectangle_27);
      }
    </style>
    <filter id="Rectangle_27" x="0" y="0" width="689" height="714" filterUnits="userSpaceOnUse">
      <feOffset dy="3" input="SourceAlpha"/>
      <feGaussianBlur stdDeviation="3" result="blur"/>
      <feFlood flood-opacity="0.161"/>
      <feComposite operator="in" in2="blur"/>
      <feComposite in="SourceGraphic"/>
    </filter>
  </defs>
  <g id="resume_bg" class="cls-1" transform="translate(-1423 -267)">
    <g class="cls-4" transform="matrix(1, 0, 0, 1, 1423, 267)">
      <rect id="Rectangle_27-2" data-name="Rectangle 27" class="cls-2" width="671" height="696" rx="29" transform="translate(9 6)"/>
    </g>
    <rect id="Rectangle_28" data-name="Rectangle 28" class="cls-3" width="320" height="23" rx="11.5" transform="translate(1465 312)"/>
    <rect id="Rectangle_29" data-name="Rectangle 29" class="cls-3" width="155" height="13" rx="6.5" transform="translate(1465 357)"/>
    <rect id="Rectangle_30" data-name="Rectangle 30" class="cls-3" width="155" height="13" rx="6.5" transform="translate(1465 477)"/>
    <rect id="Rectangle_43" data-name="Rectangle 43" class="cls-3" width="155" height="13" rx="6.5" transform="translate(1465 843)"/>
    <rect id="Rectangle_31" data-name="Rectangle 31" class="cls-3" width="220" height="17" rx="8.5" transform="translate(1690 473)"/>
    <rect id="Rectangle_44" data-name="Rectangle 44" class="cls-3" width="93" height="17" rx="8.5" transform="translate(1690 839)"/>
    <rect id="Rectangle_46" data-name="Rectangle 46" class="cls-3" width="93" height="17" rx="8.5" transform="translate(1690 880)"/>
    <rect id="Rectangle_48" data-name="Rectangle 48" class="cls-3" width="93" height="17" rx="8.5" transform="translate(1690 921)"/>
    <rect id="Rectangle_45" data-name="Rectangle 45" class="cls-3" width="93" height="17" rx="8.5" transform="translate(1817 839)"/>
    <rect id="Rectangle_47" data-name="Rectangle 47" class="cls-3" width="93" height="17" rx="8.5" transform="translate(1817 880)"/>
    <rect id="Rectangle_49" data-name="Rectangle 49" class="cls-3" width="93" height="17" rx="8.5" transform="translate(1817 921)"/>
    <rect id="Rectangle_35" data-name="Rectangle 35" class="cls-3" width="220" height="17" rx="8.5" transform="translate(1690 595)"/>
    <rect id="Rectangle_39" data-name="Rectangle 39" class="cls-3" width="220" height="17" rx="8.5" transform="translate(1690 717)"/>
    <rect id="Rectangle_32" data-name="Rectangle 32" class="cls-3" width="220" height="5" rx="2.5" transform="translate(1690 514)"/>
    <rect id="Rectangle_36" data-name="Rectangle 36" class="cls-3" width="220" height="5" rx="2.5" transform="translate(1690 636)"/>
    <rect id="Rectangle_40" data-name="Rectangle 40" class="cls-3" width="220" height="5" rx="2.5" transform="translate(1690 758)"/>
    <rect id="Rectangle_33" data-name="Rectangle 33" class="cls-3" width="220" height="5" rx="2.5" transform="translate(1690 532)"/>
    <rect id="Rectangle_37" data-name="Rectangle 37" class="cls-3" width="220" height="5" rx="2.5" transform="translate(1690 654)"/>
    <rect id="Rectangle_41" data-name="Rectangle 41" class="cls-3" width="220" height="5" rx="2.5" transform="translate(1690 776)"/>
    <rect id="Rectangle_34" data-name="Rectangle 34" class="cls-3" width="101" height="5" rx="2.5" transform="translate(1690 550)"/>
    <rect id="Rectangle_38" data-name="Rectangle 38" class="cls-3" width="101" height="5" rx="2.5" transform="translate(1690 672)"/>
    <rect id="Rectangle_42" data-name="Rectangle 42" class="cls-3" width="101" height="5" rx="2.5" transform="translate(1690 794)"/>
  </g>
</svg>
